<svg width="238" height="143" viewBox="0 0 238 143" fill="none" xmlns="http://www.w3.org/2000/svg">
<path fill-rule="evenodd" clip-rule="evenodd" d="M16.6562 1.15625H237.156V115.974C126.906 69.0506 126.906 164.228 16.6562 107.654V1.15625Z" fill="#A0D683" stroke="#838383" stroke-linecap="round" stroke-linejoin="round"/>
<path fill-rule="evenodd" clip-rule="evenodd" d="M8.78125 9.03125H229.281V123.849C119.031 76.9256 119.031 172.103 8.78125 115.529V9.03125Z" fill="#D3EE98" stroke="#838383" stroke-linecap="round" stroke-linejoin="round"/>
<path fill-rule="evenodd" clip-rule="evenodd" d="M0.90625 16.9062H221.406V131.724C111.156 84.8006 111.156 179.978 0.90625 123.404V16.9062Z" fill="#FEFF9F" stroke="#838383" stroke-linecap="round" stroke-linejoin="round"/>
<path d="M20.695 68.045V64.72C20.695 63.53 20.94 62.4217 21.43 61.395C21.9433 60.345 22.62 59.435 23.46 58.665C24.3233 57.895 25.315 57.2883 26.435 56.845C27.5783 56.4017 28.78 56.18 30.04 56.18C31.3 56.18 32.49 56.4017 33.61 56.845C34.7533 57.2883 35.745 57.895 36.585 58.665C37.4483 59.435 38.125 60.345 38.615 61.395C39.1283 62.4217 39.385 63.53 39.385 64.72V86H33.05V64.72C33.05 64.3 32.9683 63.9033 32.805 63.53C32.665 63.1333 32.455 62.7833 32.175 62.48C31.9183 62.1767 31.6033 61.9317 31.23 61.745C30.88 61.5583 30.4833 61.465 30.04 61.465C29.5967 61.465 29.1883 61.5583 28.815 61.745C28.4417 61.9317 28.1267 62.1767 27.87 62.48C27.6133 62.76 27.4033 63.0983 27.24 63.495C27.1 63.8917 27.03 64.3 27.03 64.72V68.045H30.67V73.33H27.03V86H20.695V73.33H18.42V68.045H20.695ZM49.7048 76.935C49.7048 77.5417 49.8098 78.1017 50.0198 78.615C50.2531 79.105 50.5448 79.5367 50.8948 79.91C51.2681 80.2833 51.6998 80.575 52.1898 80.785C52.7031 80.995 53.2398 81.1 53.7998 81.1C54.3598 81.1 54.8848 80.995 55.3748 80.785C55.8881 80.575 56.3198 80.2833 56.6698 79.91C57.0431 79.5367 57.3348 79.105 57.5448 78.615C57.7781 78.1017 57.8948 77.5533 57.8948 76.97C57.8948 76.41 57.7781 75.885 57.5448 75.395C57.3348 74.8817 57.0431 74.4383 56.6698 74.065C56.3198 73.6917 55.8881 73.4 55.3748 73.19C54.8848 72.98 54.3598 72.875 53.7998 72.875C53.2398 72.875 52.7031 72.98 52.1898 73.19C51.6998 73.4 51.2681 73.6917 50.8948 74.065C50.5448 74.4383 50.2531 74.87 50.0198 75.36C49.8098 75.85 49.7048 76.375 49.7048 76.935ZM43.0198 76.865C43.0198 75.535 43.2881 74.2983 43.8248 73.155C44.3615 71.9883 45.1081 70.985 46.0648 70.145C47.0215 69.2817 48.1531 68.605 49.4598 68.115C50.7898 67.625 52.2365 67.38 53.7998 67.38C55.3398 67.38 56.7631 67.625 58.0698 68.115C59.3998 68.5817 60.5431 69.2467 61.4998 70.11C62.4798 70.95 63.2381 71.965 63.7748 73.155C64.3115 74.3217 64.5798 75.6167 64.5798 77.04C64.5798 78.4633 64.2998 79.77 63.7398 80.96C63.2031 82.1267 62.4565 83.1417 61.4998 84.005C60.5431 84.845 59.3881 85.4983 58.0348 85.965C56.7048 86.4317 55.2581 86.665 53.6948 86.665C52.1548 86.665 50.7315 86.4317 49.4248 85.965C48.1181 85.4983 46.9865 84.8333 46.0298 83.97C45.0965 83.1067 44.3615 82.08 43.8248 80.89C43.2881 79.6767 43.0198 78.335 43.0198 76.865ZM72.2038 68.045L76.5088 77.495L80.9888 68.045H84.9788L89.4588 77.775L93.9738 68.045H101.009L91.6288 86H87.3938L82.9138 76.165L78.6438 86H74.3388L65.1338 68.045H72.2038ZM110.262 73.33V86H103.927V73.33H101.827V68.045H103.927V62.655H110.262V68.045H113.867V73.33H110.262ZM117.069 56.95H123.404V70.32C124.268 69.27 125.143 68.57 126.029 68.22C126.916 67.8467 127.954 67.66 129.144 67.66C131.408 67.66 133.111 68.29 134.254 69.55C135.421 70.7867 136.004 72.4667 136.004 74.59V86H129.669V76.935C129.669 76.025 129.599 75.29 129.459 74.73C129.319 74.17 129.086 73.7383 128.759 73.435C128.199 72.945 127.523 72.7 126.729 72.7C125.656 72.7 124.828 73.0267 124.244 73.68C123.684 74.31 123.404 75.22 123.404 76.41V86H117.069V56.95ZM146.647 68.045V86H140.312V68.045H146.647ZM139.892 61.15C139.892 60.66 139.985 60.205 140.172 59.785C140.358 59.3417 140.615 58.9567 140.942 58.63C141.268 58.3033 141.642 58.0467 142.062 57.86C142.505 57.6733 142.972 57.58 143.462 57.58C143.952 57.58 144.407 57.6733 144.827 57.86C145.27 58.0467 145.655 58.3033 145.982 58.63C146.308 58.9567 146.565 59.3417 146.752 59.785C146.938 60.205 147.032 60.66 147.032 61.15C147.032 61.64 146.938 62.1067 146.752 62.55C146.565 62.97 146.308 63.3433 145.982 63.67C145.655 63.9967 145.27 64.2533 144.827 64.44C144.407 64.6267 143.952 64.72 143.462 64.72C142.972 64.72 142.505 64.6267 142.062 64.44C141.642 64.2533 141.268 63.9967 140.942 63.67C140.615 63.3433 140.358 62.97 140.172 62.55C139.985 62.1067 139.892 61.64 139.892 61.15ZM150.976 68.045H157.311V70.32C158.174 69.27 159.049 68.57 159.936 68.22C160.822 67.8467 161.861 67.66 163.051 67.66C164.311 67.66 165.384 67.87 166.271 68.29C167.181 68.6867 167.951 69.2583 168.581 70.005C169.094 70.6117 169.444 71.2883 169.631 72.035C169.817 72.7817 169.911 73.6333 169.911 74.59V86H163.576V76.935C163.576 76.0483 163.506 75.3367 163.366 74.8C163.249 74.24 163.027 73.7967 162.701 73.47C162.421 73.19 162.106 72.9917 161.756 72.875C161.406 72.7583 161.032 72.7 160.636 72.7C159.562 72.7 158.734 73.0267 158.151 73.68C157.591 74.31 157.311 75.22 157.311 76.41V86H150.976V68.045ZM180.553 56.95V74.52L187.203 68.045H195.883L186.888 76.34L196.408 86H187.518L180.553 78.685V86H174.218V56.95H180.553Z" fill="#385F38"/>
<path fill-rule="evenodd" clip-rule="evenodd" d="M16.6562 1.15625H237.156V115.974C126.906 69.0506 126.906 164.228 16.6562 107.654V1.15625Z" fill="#A0D683" stroke="#838383" stroke-linecap="round" stroke-linejoin="round"/>
<path fill-rule="evenodd" clip-rule="evenodd" d="M8.78125 9.03125H229.281V123.849C119.031 76.9256 119.031 172.103 8.78125 115.529V9.03125Z" fill="#D3EE98" stroke="#838383" stroke-linecap="round" stroke-linejoin="round"/>
<path fill-rule="evenodd" clip-rule="evenodd" d="M0.90625 16.9062H221.406V131.724C111.156 84.8006 111.156 179.978 0.90625 123.404V16.9062Z" fill="#FEFF9F" stroke="#838383" stroke-linecap="round" stroke-linejoin="round"/>
</svg>
